<?xml version="1.0" encoding="UTF-8" standalone="no"?>
<!--?xml version="1.0" encoding="utf-8"?-->

<!-- Generator: Adobe Illustrator 18.1.1, SVG Export Plug-In . SVG Version: 6.00 Build 0)  -->

<svg
   xmlns:dc="http://purl.org/dc/elements/1.1/"
   xmlns:cc="http://creativecommons.org/ns#"
   xmlns:rdf="http://www.w3.org/1999/02/22-rdf-syntax-ns#"
   xmlns:svg="http://www.w3.org/2000/svg"
   xmlns="http://www.w3.org/2000/svg"
   xmlns:sodipodi="http://sodipodi.sourceforge.net/DTD/sodipodi-0.dtd"
   xmlns:inkscape="http://www.inkscape.org/namespaces/inkscape"
   version="1.1"
   id="_x32_"
   x="0px"
   y="0px"
   viewBox="0 0 256 256"
   style="opacity:1"
   xml:space="preserve"
   sodipodi:docname="icon.svg"
   inkscape:version="0.92.3 (2405546, 2018-03-11)"
   width="256"
   height="256"
   inkscape:export-filename="/home/hiro/Documents/eclipse/chrome-gesture/icon128.png"
   inkscape:export-xdpi="48"
   inkscape:export-ydpi="48"><metadata
   id="metadata15"><rdf:RDF><cc:Work
       rdf:about=""><dc:format>image/svg+xml</dc:format><dc:type
         rdf:resource="http://purl.org/dc/dcmitype/StillImage" /><dc:title /></cc:Work></rdf:RDF></metadata><defs
   id="defs13">
	
	
</defs><sodipodi:namedview
   pagecolor="#ffffff"
   bordercolor="#666666"
   borderopacity="1"
   objecttolerance="10"
   gridtolerance="10"
   guidetolerance="10"
   inkscape:pageopacity="0"
   inkscape:pageshadow="2"
   inkscape:window-width="1920"
   inkscape:window-height="1007"
   id="namedview11"
   showgrid="false"
   inkscape:snap-bbox="true"
   inkscape:snap-bbox-midpoints="true"
   inkscape:zoom="1.84375"
   inkscape:cx="-85.283252"
   inkscape:cy="85.651125"
   inkscape:window-x="0"
   inkscape:window-y="36"
   inkscape:window-maximized="1"
   inkscape:current-layer="_x32_"
   borderlayer="true"
   inkscape:snap-bbox-edge-midpoints="true"
   inkscape:bbox-nodes="true"
   inkscape:bbox-paths="true" />
<style
   type="text/css"
   id="style2">
	.st0{fill:#4B4B4B;}
</style>

<path
   style="stroke-width:0.02654559"
   d="M 75.370437,3.8525738 C 74.407363,4.4599757 74.193904,15.793387 72.928173,108.44602 c -1.059185,77.53405 -1.197583,101.59444 -0.624824,104.64604 -0.06933,0.0665 -0.09401,0.10081 -0.03196,0.0717 5.83e-4,-2.7e-4 0.03935,-0.0196 0.03987,-0.0198 0.04289,0.21193 0.08911,0.34275 0.139784,0.33844 -0.356761,0.28627 9.416188,-1.28324 46.933047,-7.56812 10.92992,-1.83099 14.01873,-2.3665 20.54378,-3.46674 2.24241,4.63776 4.66819,9.68809 7.2296,15.06474 8.71619,18.16041 15.56492,32.6201 17.66069,36.98251 l 40.29206,-17.45662 c -2.3804,-5.16012 -8.51657,-18.28769 -17.06841,-36.42534 -2.87263,-6.07184 -4.93475,-10.51344 -7.37704,-15.72801 17.27752,-16.97009 45.75672,-45.06019 46.31992,-45.72038 l 0.56806,-0.49548 -0.077,-0.0243 c 0.002,-10e-4 0.056,-0.0188 0.0565,-0.0193 C 227.75989,138.41225 78.135439,5.6072592 75.696101,3.929508 75.578492,3.840941 75.470004,3.7899142 75.370374,3.852754 Z"
   id="path868"
   inkscape:connector-curvature="0" /><path
   style="font-style:normal;font-variant:normal;font-weight:normal;font-stretch:normal;font-size:194.2441864px;line-height:1.25;font-family:'Noto Serif';-inkscape-font-specification:'Noto Serif, Normal';font-variant-ligatures:normal;font-variant-caps:normal;font-variant-numeric:normal;font-feature-settings:normal;text-align:start;letter-spacing:0px;word-spacing:0px;writing-mode:lr-tb;text-anchor:start;fill:#4d4d4d;fill-opacity:1;stroke:none;stroke-width:4.85609198"
   d="M 73.792969 47.914062 C 73.753304 50.453845 73.710412 53.236118 73.667969 56.076172 C 77.879148 56.093781 81.523422 56.868156 84.595703 58.404297 C 87.833106 59.95825 89.451172 63.583421 89.451172 69.28125 L 89.451172 173.39648 C 89.451172 179.4828 87.898923 183.36733 84.791016 185.05078 C 81.683109 186.60473 77.926306 187.38086 73.523438 187.38086 L 72.015625 187.38086 C 71.996347 190.43768 71.987789 193.10294 71.982422 195.53906 L 124.2207 195.53906 L 124.2207 187.38086 L 123.63867 187.38086 C 119.3653 187.38086 115.61045 186.66859 112.37305 185.24414 C 109.26514 183.69019 107.71094 180.06502 107.71094 174.36719 L 107.71094 133.38086 C 107.71094 123.79815 109.58836 116.15876 113.34375 110.46094 C 117.22863 104.7631 123.18608 101.91406 131.21484 101.91406 C 139.11411 101.91406 144.6167 104.24439 147.72461 108.90625 C 150.96201 113.56811 152.58203 120.10814 152.58203 128.52539 L 152.58203 195.53906 L 185.66016 195.53906 C 184.33634 192.71863 182.97499 189.8202 181.71289 187.12109 C 179.10142 186.77807 176.83166 186.09354 174.91992 185.05078 C 172.20051 183.36733 170.83984 179.4828 170.83984 173.39648 L 170.83984 127.55469 C 170.83984 114.21659 167.86112 104.56815 161.9043 98.611328 C 156.07697 92.52501 147.59565 89.482422 136.45898 89.482422 C 123.25038 89.482422 113.73162 95.374052 107.9043 107.1582 L 106.93359 107.1582 L 107.12891 104.63281 C 107.25841 102.81987 107.38808 100.61922 107.51758 98.029297 C 107.64708 95.439374 107.71094 92.979368 107.71094 90.648438 L 107.71094 47.914062 L 73.792969 47.914062 z "
   id="path815" />
</svg>